<svg width="92" height="50" viewBox="0 0 92 50" fill="none" xmlns="http://www.w3.org/2000/svg">
<path fill-rule="evenodd" clip-rule="evenodd" d="M60.6726 34.89H74.6226L76.1726 49.25H61.0926L60.6726 34.89Z" fill="#164193"/>
<path d="M76.1725 0.75H61.0925V15.35H76.1725V0.75Z" fill="#164193"/>
<path fill-rule="evenodd" clip-rule="evenodd" d="M75.7526 34.62H77.2926V47.21L75.7526 34.62Z" fill="#164193"/>
<path fill-rule="evenodd" clip-rule="evenodd" d="M45.9927 17.25L59.1127 18.28L73.9127 33.74L45.9927 32.28V17.25Z" fill="#164193"/>
<path fill-rule="evenodd" clip-rule="evenodd" d="M45.9927 16.52H91.9526V32.28H74.5826L60.0826 17.39L45.9927 16.52Z" fill="#164193"/>
<path fill-rule="evenodd" clip-rule="evenodd" d="M34.7826 26.62C32.7526 25.94 29.9126 24.91 30.0126 21.42C30.1126 17.8 33.1226 16.64 35.4926 16.64H40.5126V19.33H37.4326C34.8126 19.33 35.2026 20.03 35.1326 20.59C35.0126 21.45 37.1126 21.82 38.7026 22.53C40.6326 23.41 41.6626 25.37 41.5626 27.73C41.4926 29.97 39.7526 32.63 35.9126 32.63H30.1826V29.97H34.3226C37.0826 29.96 37.2026 27.4 34.7826 26.62Z" fill="#164193"/>
<path fill-rule="evenodd" clip-rule="evenodd" d="M4.77259 26.62C2.74259 25.94 -0.0974302 24.91 0.00256976 21.42C0.12257 17.8 3.13261 16.64 5.48261 16.64H10.5026V19.33H7.44257C4.82257 19.33 5.19256 20.03 5.12256 20.59C5.02256 21.45 7.13257 21.82 8.69257 22.53C10.6526 23.41 11.6526 25.37 11.5826 27.73C11.4826 29.97 9.77259 32.63 5.90259 32.63H0.202582V29.97H4.31257C7.07257 29.96 7.22259 27.4 4.77259 26.62Z" fill="#164193"/>
<path fill-rule="evenodd" clip-rule="evenodd" d="M26.1626 16.64V26.97C26.1626 31.27 23.0026 33.41 19.8426 33.41C16.6826 33.41 13.5526 31.27 13.5526 26.97V16.64H18.7926V28.3C18.7926 29.86 19.9226 30.61 21.0426 30.59C22.1426 30.57 23.2726 29.79 23.2726 28.3V16.64H26.1626Z" fill="#164193"/>
</svg>
